<svg viewBox = "0 0 88 88" width="88" height="88" xmlns="http://www.w3.org/2000/svg"><g transform="matrix(1 0 0 1 44 44)"  ><g style=""   ><g transform="matrix(1 0 0 1 15.93 -5.42)"  ><path style="stroke: none; stroke-width: 1; stroke-dasharray: none; stroke-linecap: butt; stroke-dashoffset: 0; stroke-linejoin: miter; stroke-miterlimit: 4; fill: rgb(0,0,0); fill-rule: nonzero; opacity: 1;"  transform=" translate(-59.93, -38.58)" d="M 39.4873 59.4667 C 52.4135 59.1001 62.4889 50.3741 65.8614 41.2879 C 67.0489 35.1961 61.1581 31.911 57.2278 36.1486 C 56.5892 30.3519 53.3046 24.9552 47.719 21.784 C 48.1192 21.414 48.5454 21.0502 49.0019 20.69 C 52.6354 18.5459 56.1035 17.5187 59.2917 17.3532 C 75.5573 16.0631 88.0587 37.4919 74.785 50.5112 C 68.4881 56.686 50.4054 61.2387 39.5616 59.4751 C 39.575 59.4765 39.5884 59.4778 39.6041 59.4777 L 39.4873 59.4667 Z" stroke-linecap="round" /></g><g transform="matrix(1 0 0 1 -1.65 -0.02)"  ><path style="stroke: none; stroke-width: 1; stroke-dasharray: none; stroke-linecap: butt; stroke-dashoffset: 0; stroke-linejoin: miter; stroke-miterlimit: 4; fill: rgb(1,1,1); fill-rule: nonzero; opacity: 1;"  transform=" translate(-42.35, -43.98)" d="M 13.4573 57.0955 C 8.80845 48.9226 8.68087 38.819 13.4497 30.678 C 17.271 24.1556 22.7945 20.0869 30.0466 18.1999 C 33.4826 17.3059 37.3648 17.3299 40.6649 17.8127 C 42.1866 18.0345 43.5827 18.4526 45.0597 18.9415 C 45.0246 18.9408 44.9887 18.9437 44.9537 18.943 C 46.1249 19.312 47.335 19.8119 48.5787 20.465 C 60.6645 26.8118 62.6272 43.2772 51.2016 52.8889 C 58.93 41.7865 53.1282 31.4062 44.4817 28.4082 C 35.3766 25.2509 23.1615 28.1731 22.2593 42.0727 C 22.8528 50.1282 28.0867 57.5943 38.3367 59.2967 C 47.2396 60.7751 68.7528 56.4237 74.7809 50.52 C 74.2259 51.1832 73.6236 51.8152 72.9736 52.4101 C 67.1934 57.6988 52.7089 66.2326 45.5346 68.877 C 33.5179 73.3068 19.8463 68.3363 13.4564 57.0992 L 13.4573 57.0955 Z" stroke-linecap="round" /></g><g transform="matrix(1 0 0 1 -4.85 -3.63)"  ><path style="stroke: none; stroke-width: 1; stroke-dasharray: none; stroke-linecap: butt; stroke-dashoffset: 0; stroke-linejoin: miter; stroke-miterlimit: 4; fill: rgb(0,0,0); fill-rule: nonzero; opacity: 1;"  transform=" translate(-39.15, -40.37)" d="M 54.2697 34.0183 C 56.9646 39.5722 56.6264 46.5731 53.1625 50.9053 C 48.616 56.5881 40.0321 57.6515 37.4989 51.2637 C 36.6249 49.0599 37.1025 46.3704 37.2152 43.758 C 37.4895 37.3799 32.1046 34.1717 27.8128 35.6533 C 25.0089 36.6198 21.6514 39.2996 22.6827 44.977 C 22.4665 43.982 22.309 43.0112 22.2606 42.075 C 21.3807 25.2088 46.5509 18.112 54.2711 34.0206 L 54.2697 34.0183 Z" stroke-linecap="round" /></g></g></g></svg>